<mxfile host="65bd71144e">
    <diagram id="Z8-dsudKGo-zxtGtscHh" name="Page-1">
        <mxGraphModel dx="1066" dy="591" grid="1" gridSize="10" guides="1" tooltips="1" connect="1" arrows="1" fold="1" page="1" pageScale="1" pageWidth="850" pageHeight="1100" math="0" shadow="0">
            <root>
                <mxCell id="0"/>
                <mxCell id="1" parent="0"/>
                <mxCell id="3" value="route /auth" style="whiteSpace=wrap;html=1;aspect=fixed;align=center;verticalAlign=top;" vertex="1" parent="1">
                    <mxGeometry x="81" y="190" width="340" height="340" as="geometry"/>
                </mxCell>
                <mxCell id="4" value="route: /" style="rounded=0;whiteSpace=wrap;html=1;verticalAlign=top;" vertex="1" parent="1">
                    <mxGeometry x="320" width="320" height="180" as="geometry"/>
                </mxCell>
                <mxCell id="7" style="edgeStyle=none;html=1;exitX=0;exitY=1;exitDx=0;exitDy=0;startArrow=open;startFill=0;" edge="1" parent="1" source="2" target="3">
                    <mxGeometry relative="1" as="geometry"/>
                </mxCell>
                <mxCell id="17" style="edgeStyle=none;html=1;startArrow=none;startFill=0;exitX=0.999;exitY=0.168;exitDx=0;exitDy=0;exitPerimeter=0;" edge="1" parent="1" source="3" target="14">
                    <mxGeometry relative="1" as="geometry"/>
                </mxCell>
                <mxCell id="32" style="edgeStyle=none;html=1;exitX=0.75;exitY=1;exitDx=0;exitDy=0;entryX=0.191;entryY=-0.002;entryDx=0;entryDy=0;entryPerimeter=0;startArrow=none;startFill=0;" edge="1" parent="1" source="2" target="14">
                    <mxGeometry relative="1" as="geometry"/>
                </mxCell>
                <mxCell id="2" value="app" style="rounded=0;whiteSpace=wrap;html=1;" vertex="1" parent="1">
                    <mxGeometry x="425" y="60" width="120" height="60" as="geometry"/>
                </mxCell>
                <mxCell id="5" value="sign up" style="rounded=0;whiteSpace=wrap;html=1;" vertex="1" parent="1">
                    <mxGeometry x="280" y="300" width="120" height="60" as="geometry"/>
                </mxCell>
                <mxCell id="13" style="edgeStyle=none;html=1;entryX=0.5;entryY=0;entryDx=0;entryDy=0;startArrow=none;startFill=0;" edge="1" parent="1" source="6" target="9">
                    <mxGeometry relative="1" as="geometry"/>
                </mxCell>
                <mxCell id="6" value="login" style="rounded=0;whiteSpace=wrap;html=1;" vertex="1" parent="1">
                    <mxGeometry x="110" y="300" width="120" height="60" as="geometry"/>
                </mxCell>
                <mxCell id="8" value="state: session" style="text;html=1;strokeColor=none;fillColor=none;align=center;verticalAlign=middle;whiteSpace=wrap;rounded=0;" vertex="1" parent="1">
                    <mxGeometry x="170" y="230" width="190" height="50" as="geometry"/>
                </mxCell>
                <mxCell id="9" value="logout" style="rounded=0;whiteSpace=wrap;html=1;" vertex="1" parent="1">
                    <mxGeometry x="210" y="440" width="120" height="60" as="geometry"/>
                </mxCell>
                <mxCell id="31" style="edgeStyle=none;html=1;exitX=0.5;exitY=1;exitDx=0;exitDy=0;startArrow=none;startFill=0;" edge="1" parent="1" source="14" target="18">
                    <mxGeometry relative="1" as="geometry"/>
                </mxCell>
                <mxCell id="14" value="route /selectcharacter" style="whiteSpace=wrap;html=1;aspect=fixed;align=center;verticalAlign=top;" vertex="1" parent="1">
                    <mxGeometry x="500" y="190" width="340" height="340" as="geometry"/>
                </mxCell>
                <mxCell id="15" value="all tamagotchi characters" style="whiteSpace=wrap;html=1;aspect=fixed;" vertex="1" parent="1">
                    <mxGeometry x="535" y="350" width="130" height="130" as="geometry"/>
                </mxCell>
                <mxCell id="16" value="the tamagotchi characters you created" style="rounded=0;whiteSpace=wrap;html=1;" vertex="1" parent="1">
                    <mxGeometry x="540" y="260" width="120" height="60" as="geometry"/>
                </mxCell>
                <mxCell id="18" value="route /play" style="whiteSpace=wrap;html=1;aspect=fixed;align=center;verticalAlign=top;" vertex="1" parent="1">
                    <mxGeometry x="145" y="550" width="620" height="620" as="geometry"/>
                </mxCell>
                <mxCell id="19" value="game" style="whiteSpace=wrap;html=1;aspect=fixed;verticalAlign=top;" vertex="1" parent="1">
                    <mxGeometry x="225" y="610" width="460" height="460" as="geometry"/>
                </mxCell>
                <mxCell id="21" value="controls" style="swimlane;fontStyle=0;childLayout=stackLayout;horizontal=1;startSize=26;fillColor=none;horizontalStack=0;resizeParent=1;resizeParentMax=0;resizeLast=0;collapsible=1;marginBottom=0;" vertex="1" parent="1">
                    <mxGeometry x="260" y="907" width="140" height="130" as="geometry"/>
                </mxCell>
                <mxCell id="22" value="feed" style="text;strokeColor=none;fillColor=none;align=left;verticalAlign=top;spacingLeft=4;spacingRight=4;overflow=hidden;rotatable=0;points=[[0,0.5],[1,0.5]];portConstraint=eastwest;" vertex="1" parent="21">
                    <mxGeometry y="26" width="140" height="26" as="geometry"/>
                </mxCell>
                <mxCell id="23" value="pet/play" style="text;strokeColor=none;fillColor=none;align=left;verticalAlign=top;spacingLeft=4;spacingRight=4;overflow=hidden;rotatable=0;points=[[0,0.5],[1,0.5]];portConstraint=eastwest;" vertex="1" parent="21">
                    <mxGeometry y="52" width="140" height="26" as="geometry"/>
                </mxCell>
                <mxCell id="24" value="clean" style="text;strokeColor=none;fillColor=none;align=left;verticalAlign=top;spacingLeft=4;spacingRight=4;overflow=hidden;rotatable=0;points=[[0,0.5],[1,0.5]];portConstraint=eastwest;" vertex="1" parent="21">
                    <mxGeometry y="78" width="140" height="26" as="geometry"/>
                </mxCell>
                <mxCell id="25" value="give medicine" style="text;strokeColor=none;fillColor=none;align=left;verticalAlign=top;spacingLeft=4;spacingRight=4;overflow=hidden;rotatable=0;points=[[0,0.5],[1,0.5]];portConstraint=eastwest;" vertex="1" parent="21">
                    <mxGeometry y="104" width="140" height="26" as="geometry"/>
                </mxCell>
                <mxCell id="26" value="navigation" style="swimlane;fontStyle=0;childLayout=stackLayout;horizontal=1;startSize=26;fillColor=none;horizontalStack=0;resizeParent=1;resizeParentMax=0;resizeLast=0;collapsible=1;marginBottom=0;" vertex="1" parent="1">
                    <mxGeometry x="510" y="920" width="140" height="104" as="geometry"/>
                </mxCell>
                <mxCell id="27" value="account" style="text;strokeColor=none;fillColor=none;align=left;verticalAlign=top;spacingLeft=4;spacingRight=4;overflow=hidden;rotatable=0;points=[[0,0.5],[1,0.5]];portConstraint=eastwest;" vertex="1" parent="26">
                    <mxGeometry y="26" width="140" height="26" as="geometry"/>
                </mxCell>
                <mxCell id="28" value="save" style="text;strokeColor=none;fillColor=none;align=left;verticalAlign=top;spacingLeft=4;spacingRight=4;overflow=hidden;rotatable=0;points=[[0,0.5],[1,0.5]];portConstraint=eastwest;" vertex="1" parent="26">
                    <mxGeometry y="52" width="140" height="26" as="geometry"/>
                </mxCell>
                <mxCell id="29" value="load" style="text;strokeColor=none;fillColor=none;align=left;verticalAlign=top;spacingLeft=4;spacingRight=4;overflow=hidden;rotatable=0;points=[[0,0.5],[1,0.5]];portConstraint=eastwest;" vertex="1" parent="26">
                    <mxGeometry y="78" width="140" height="26" as="geometry"/>
                </mxCell>
                <mxCell id="30" value="state:&lt;br&gt;&lt;ul&gt;&lt;li&gt;&amp;nbsp;session&lt;/li&gt;&lt;li&gt;tama character&lt;/li&gt;&lt;/ul&gt;" style="text;html=1;strokeColor=none;fillColor=none;align=left;verticalAlign=top;whiteSpace=wrap;rounded=0;" vertex="1" parent="1">
                    <mxGeometry x="234" y="640" width="145" height="110" as="geometry"/>
                </mxCell>
                <mxCell id="33" value="Container" style="swimlane;" vertex="1" parent="1">
                    <mxGeometry x="470" y="640" width="200" height="200" as="geometry"/>
                </mxCell>
                <mxCell id="34" value="character status chart" style="rounded=0;whiteSpace=wrap;html=1;" vertex="1" parent="33">
                    <mxGeometry x="65" y="130" width="120" height="60" as="geometry"/>
                </mxCell>
                <mxCell id="20" value="canvas" style="whiteSpace=wrap;html=1;aspect=fixed;" vertex="1" parent="1">
                    <mxGeometry x="560" y="670" width="80" height="80" as="geometry"/>
                </mxCell>
                <mxCell id="35" value="footer" style="rounded=0;whiteSpace=wrap;html=1;" vertex="1" parent="1">
                    <mxGeometry x="495" y="90" width="50" height="30" as="geometry"/>
                </mxCell>
            </root>
        </mxGraphModel>
    </diagram>
</mxfile>